# xmcd
#
# Track frame offsets: 
#        197
#        14002
#        27575
#        41967
#        55842
#        70500
#        83257
#        93347
#        106225
#        120742
#        133332
#        145742
#        157457
#        168987
#        182025
#        193370
#        207380
#        218865
#        232390
#        246572
#
# Disc length: 3481 seconds
#
# Revision: 3
# Processed by: cddbd v1.5.1PL2 Copyright (c) Steve Scherf et al.
# Submitted via: ExactAudioCopy v0.95b2
#
DISCID=370d9714
DTITLE=Various Artist - Blues Is Killin' Me - Chicago Blues 1951 -- 1953
DYEAR=1900
DGENRE=
TTITLE0=Baby Face Leroy/Pet Rabbit
TTITLE1=Baby Face Leroy/Louella
TTITLE2=Baby Face Leroy/Late Hours At Midnight
TTITLE3=Baby Face Leroy/Blues Is Killin' Me
TTITLE4=Floyd Jones/Dark Road
TTITLE5=Floyd Jones/I Lost A Good Woman
TTITLE6=Floyd Jones/Skinny Mama
TTITLE7=Floyd Jones/Rising Wind
TTITLE8=Floyd Jones/On The Road Again
TTITLE9=Unknown/Where Have You Been So Long
TTITLE10=Little Hudson/Rough Treatment
TTITLE11=Little Hudson/I'm Looking For A Woman
TTITLE12=Little Hudson/Things Going So Tough With Me
TTITLE13=Little Hudson/Don't Hang Around
TTITLE14=Memphis Minnie/Kissing In The Dark
TTITLE15=Memphis Minnie/World Of Trouble
TTITLE16=Memphis Minnie/In Love Again
TTITLE17=Memphis Minnie/What A Night
TTITLE18=Little Son Joe/Ethel Bea
TTITLE19=Little Son Joe/A Little Too Late
EXTD=
EXTT0=
EXTT1=
EXTT2=
EXTT3=
EXTT4=
EXTT5=
EXTT6=
EXTT7=
EXTT8=
EXTT9=
EXTT10=
EXTT11=
EXTT12=
EXTT13=
EXTT14=
EXTT15=
EXTT16=
EXTT17=
EXTT18=
EXTT19=
PLAYORDER=
